<?xml version="1.0" encoding="UTF-8" standalone="no"?>
<!-- Created with Inkscape (http://www.inkscape.org/) -->

<svg
   xmlns:dc="http://purl.org/dc/elements/1.1/"
   xmlns:cc="http://creativecommons.org/ns#"
   xmlns:rdf="http://www.w3.org/1999/02/22-rdf-syntax-ns#"
   xmlns:svg="http://www.w3.org/2000/svg"
   xmlns="http://www.w3.org/2000/svg"
   xmlns:xlink="http://www.w3.org/1999/xlink"
   xmlns:sodipodi="http://sodipodi.sourceforge.net/DTD/sodipodi-0.dtd"
   xmlns:inkscape="http://www.inkscape.org/namespaces/inkscape"
   width="64px"
   height="64px"
   id="svg3641"
   version="1.1"
   inkscape:version="0.47 r22583"
   sodipodi:docname="wireless sensor icon4.svg"
   inkscape:export-filename="C:\Users\drphrozen\Desktop\wireless sensor icon4.png"
   inkscape:export-xdpi="90"
   inkscape:export-ydpi="90">
  <defs
     id="defs3643">
    <linearGradient
       id="linearGradient4555">
      <stop
         style="stop-color:#ac6d1f;stop-opacity:1;"
         offset="0"
         id="stop4557" />
      <stop
         style="stop-color:#000000;stop-opacity:1;"
         offset="1"
         id="stop4559" />
    </linearGradient>
    <inkscape:perspective
       sodipodi:type="inkscape:persp3d"
       inkscape:vp_x="0 : 32 : 1"
       inkscape:vp_y="0 : 1000 : 0"
       inkscape:vp_z="64 : 32 : 1"
       inkscape:persp3d-origin="32 : 21.333333 : 1"
       id="perspective3649" />
    <linearGradient
       y2="539.74548"
       x2="463.8797"
       y1="575.79578"
       x1="500.87375"
       gradientUnits="userSpaceOnUse"
       id="linearGradient5499"
       xlink:href="#linearGradient566"
       inkscape:collect="always" />
    <linearGradient
       y2="539.74548"
       x2="463.8797"
       y1="575.79578"
       x1="500.87375"
       gradientUnits="userSpaceOnUse"
       id="linearGradient5497"
       xlink:href="#linearGradient566"
       inkscape:collect="always" />
    <linearGradient
       y2="539.74548"
       x2="463.8797"
       y1="575.79578"
       x1="500.87375"
       gradientUnits="userSpaceOnUse"
       id="linearGradient5495"
       xlink:href="#linearGradient566"
       inkscape:collect="always" />
    <linearGradient
       y2="539.74548"
       x2="463.8797"
       y1="575.79578"
       x1="500.87375"
       gradientUnits="userSpaceOnUse"
       id="linearGradient5493"
       xlink:href="#linearGradient566"
       inkscape:collect="always" />
    <linearGradient
       inkscape:collect="always"
       xlink:href="#linearGradient566"
       id="linearGradient4602"
       gradientUnits="userSpaceOnUse"
       x1="500.87375"
       y1="575.79578"
       x2="463.8797"
       y2="539.74548" />
    <linearGradient
       inkscape:collect="always"
       xlink:href="#linearGradient566"
       id="linearGradient4600"
       gradientUnits="userSpaceOnUse"
       x1="500.87375"
       y1="575.79578"
       x2="463.8797"
       y2="539.74548" />
    <linearGradient
       inkscape:collect="always"
       xlink:href="#linearGradient566"
       id="linearGradient4598"
       gradientUnits="userSpaceOnUse"
       x1="500.87375"
       y1="575.79578"
       x2="463.8797"
       y2="539.74548" />
    <linearGradient
       inkscape:collect="always"
       xlink:href="#linearGradient566"
       id="linearGradient4596"
       gradientUnits="userSpaceOnUse"
       x1="500.87375"
       y1="575.79578"
       x2="463.8797"
       y2="539.74548" />
    <linearGradient
       inkscape:collect="always"
       xlink:href="#linearGradient566"
       id="linearGradient4594"
       gradientUnits="userSpaceOnUse"
       x1="500.87375"
       y1="575.79578"
       x2="463.8797"
       y2="539.74548" />
    <linearGradient
       id="linearGradient4578"
       spreadMethod="pad"
       gradientTransform="matrix(-60.2848,-9.4312,-48.4567,309.738,509.042,413.0601)"
       gradientUnits="userSpaceOnUse"
       y2="0"
       x2="1"
       y1="0"
       x1="0">
      <stop
         id="stop4580"
         offset="0"
         style="stop-opacity:1;stop-color:#9ed747" />
      <stop
         id="stop4582"
         offset="1"
         style="stop-opacity:1;stop-color:#7fcc2b" />
    </linearGradient>
    <linearGradient
       gradientUnits="userSpaceOnUse"
       y2="539.74548"
       x2="463.8797"
       y1="575.79578"
       x1="500.87375"
       id="linearGradient4576"
       xlink:href="#linearGradient566"
       inkscape:collect="always" />
    <linearGradient
       id="linearGradient4570"
       spreadMethod="pad"
       gradientTransform="matrix(-60.2848,-9.4312,-48.4567,309.738,509.042,413.0601)"
       gradientUnits="userSpaceOnUse"
       y2="0"
       x2="1"
       y1="0"
       x1="0">
      <stop
         id="stop4572"
         offset="0"
         style="stop-opacity:1;stop-color:#9ed747" />
      <stop
         id="stop4574"
         offset="1"
         style="stop-opacity:1;stop-color:#7fcc2b" />
    </linearGradient>
    <linearGradient
       gradientUnits="userSpaceOnUse"
       y2="539.74548"
       x2="463.8797"
       y1="575.79578"
       x1="500.87375"
       id="linearGradient4568"
       xlink:href="#linearGradient566"
       inkscape:collect="always" />
    <linearGradient
       id="linearGradient4562"
       spreadMethod="pad"
       gradientTransform="matrix(-60.2848,-9.4312,-48.4567,309.738,509.042,413.0601)"
       gradientUnits="userSpaceOnUse"
       y2="0"
       x2="1"
       y1="0"
       x1="0">
      <stop
         id="stop4564"
         offset="0"
         style="stop-opacity:1;stop-color:#9ed747" />
      <stop
         id="stop4566"
         offset="1"
         style="stop-opacity:1;stop-color:#7fcc2b" />
    </linearGradient>
    <linearGradient
       gradientUnits="userSpaceOnUse"
       y2="539.74548"
       x2="463.8797"
       y1="575.79578"
       x1="500.87375"
       id="linearGradient4560"
       xlink:href="#linearGradient566"
       inkscape:collect="always" />
    <clipPath
       id="clipPath530"
       clipPathUnits="userSpaceOnUse">
      <path
         id="path532"
         d="m 492.825,620.528 c 0,0 -1.181,-8.485 -10.269,-16.019 -9.092,-7.53 -31.685,-15.146 -46.705,-33.749 -15.018,-18.601 -7.72,-36.875 -3.868,-42.334 2.211,-3.134 5.562,-3.876 8.019,-3.935 -0.91,4.277 -1.486,9.019 -1.24,13.954 1.975,19.781 17.473,32.284 19.949,34.611 1.349,1.202 3.866,3.206 6.919,5.426 3.133,2.181 6.435,4.655 9.461,7.536 6.074,5.517 10.949,11.079 10.935,11.079 0.012,0 -4.141,-6.116 -9.656,-12.355 -2.642,-3.15 -5.994,-6.258 -8.846,-8.643 -2.823,-2.472 -5.122,-4.588 -6.416,-5.743 -1.264,-1.176 -5.338,-4.717 -9.235,-10.434 -1.967,-2.905 -3.76,-6.166 -5.493,-10.141 -1.684,-3.434 -2.509,-7.461 -2.548,-11.521 -0.062,-7.086 1.858,-14.012 3.846,-19.377 2.668,-1.382 6.865,-1.834 13.43,0.615 5.236,2.902 9.737,6.218 13.616,9.831 l -6.202,8.169 11.594,-2.494 c 3.872,4.61 6.918,9.569 9.3,14.689 l -11.267,3.398 14.096,3.661 c 2.466,7.16 3.802,14.474 4.41,21.474 l -11.195,-1.946 -0.114,-0.047 0.067,0.04 -1.22,-0.213 12.821,8.513 c 0.57,19.967 -4.189,35.955 -4.189,35.955" />
    </clipPath>
    <linearGradient
       id="linearGradient4552"
       spreadMethod="pad"
       gradientTransform="matrix(-60.2848,-9.4312,-48.4567,309.738,509.042,413.0601)"
       gradientUnits="userSpaceOnUse"
       y2="0"
       x2="1"
       y1="0"
       x1="0">
      <stop
         id="stop4554"
         offset="0"
         style="stop-opacity:1;stop-color:#9ed747" />
      <stop
         id="stop4556"
         offset="1"
         style="stop-opacity:1;stop-color:#7fcc2b" />
    </linearGradient>
    <linearGradient
       gradientUnits="userSpaceOnUse"
       y2="539.74548"
       x2="463.8797"
       y1="575.79578"
       x1="500.87375"
       id="linearGradient4550"
       xlink:href="#linearGradient566"
       inkscape:collect="always" />
    <linearGradient
       id="linearGradient4544"
       spreadMethod="pad"
       gradientTransform="matrix(-60.2848,-9.4312,-48.4567,309.738,509.042,413.0601)"
       gradientUnits="userSpaceOnUse"
       y2="0"
       x2="1"
       y1="0"
       x1="0">
      <stop
         id="stop4546"
         offset="0"
         style="stop-opacity:1;stop-color:#9ed747" />
      <stop
         id="stop4548"
         offset="1"
         style="stop-opacity:1;stop-color:#7fcc2b" />
    </linearGradient>
    <linearGradient
       gradientUnits="userSpaceOnUse"
       y2="539.74548"
       x2="463.8797"
       y1="575.79578"
       x1="500.87375"
       id="linearGradient4523"
       xlink:href="#linearGradient566"
       inkscape:collect="always" />
    <linearGradient
       id="linearGradient566"
       spreadMethod="pad"
       gradientTransform="matrix(-60.2848,-9.4312,-48.4567,309.738,509.042,413.0601)"
       gradientUnits="userSpaceOnUse"
       y2="0"
       x2="1"
       y1="0"
       x1="0">
      <stop
         id="stop568"
         offset="0"
         style="stop-opacity:1;stop-color:#9ed747" />
      <stop
         id="stop570"
         offset="1"
         style="stop-opacity:1;stop-color:#7fcc2b" />
    </linearGradient>
    <clipPath
       id="clipPath554"
       clipPathUnits="userSpaceOnUse">
      <path
         id="path556"
         d="m 435.851,570.76 c 13.509,16.729 33.148,24.578 43.571,31.466 -8.989,-8.201 -29.577,-17.459 -42.001,-36.625 -11.215,-17.302 -5.693,-33.296 -1.208,-40.414 -1.528,0.569 -3.041,1.559 -4.23,3.239 -3.852,5.459 -11.15,23.733 3.868,42.334" />
    </clipPath>
    <inkscape:perspective
       sodipodi:type="inkscape:persp3d"
       inkscape:vp_x="0 : 0.5 : 1"
       inkscape:vp_y="0 : 1000 : 0"
       inkscape:vp_z="1 : 0.5 : 1"
       inkscape:persp3d-origin="0.5 : 0.33333333 : 1"
       id="perspective4533" />
    <inkscape:perspective
       id="perspective4612"
       inkscape:persp3d-origin="372.04724 : 350.78739 : 1"
       inkscape:vp_z="744.09448 : 526.18109 : 1"
       inkscape:vp_y="0 : 1000 : 0"
       inkscape:vp_x="0 : 526.18109 : 1"
       sodipodi:type="inkscape:persp3d" />
    <inkscape:perspective
       id="perspective3909"
       inkscape:persp3d-origin="0.5 : 0.33333333 : 1"
       inkscape:vp_z="1 : 0.5 : 1"
       inkscape:vp_y="0 : 1000 : 0"
       inkscape:vp_x="0 : 0.5 : 1"
       sodipodi:type="inkscape:persp3d" />
    <linearGradient
       y2="539.74548"
       x2="463.8797"
       y1="575.79578"
       x1="500.87375"
       gradientUnits="userSpaceOnUse"
       id="linearGradient5499-4"
       xlink:href="#linearGradient566-0"
       inkscape:collect="always" />
    <linearGradient
       id="linearGradient566-0"
       spreadMethod="pad"
       gradientTransform="matrix(-60.2848,-9.4312,-48.4567,309.738,509.042,413.0601)"
       gradientUnits="userSpaceOnUse"
       y2="0"
       x2="1"
       y1="0"
       x1="0">
      <stop
         id="stop568-9"
         offset="0"
         style="stop-opacity:1;stop-color:#9ed747" />
      <stop
         id="stop570-4"
         offset="1"
         style="stop-opacity:1;stop-color:#7fcc2b" />
    </linearGradient>
    <linearGradient
       y2="539.74548"
       x2="463.8797"
       y1="575.79578"
       x1="500.87375"
       gradientUnits="userSpaceOnUse"
       id="linearGradient5497-8"
       xlink:href="#linearGradient566-0"
       inkscape:collect="always" />
    <linearGradient
       id="linearGradient3918"
       spreadMethod="pad"
       gradientTransform="matrix(-60.2848,-9.4312,-48.4567,309.738,509.042,413.0601)"
       gradientUnits="userSpaceOnUse"
       y2="0"
       x2="1"
       y1="0"
       x1="0">
      <stop
         id="stop3920"
         offset="0"
         style="stop-opacity:1;stop-color:#9ed747" />
      <stop
         id="stop3922"
         offset="1"
         style="stop-opacity:1;stop-color:#7fcc2b" />
    </linearGradient>
    <clipPath
       id="clipPath530-8"
       clipPathUnits="userSpaceOnUse">
      <path
         id="path532-2"
         d="m 492.825,620.528 c 0,0 -1.181,-8.485 -10.269,-16.019 -9.092,-7.53 -31.685,-15.146 -46.705,-33.749 -15.018,-18.601 -7.72,-36.875 -3.868,-42.334 2.211,-3.134 5.562,-3.876 8.019,-3.935 -0.91,4.277 -1.486,9.019 -1.24,13.954 1.975,19.781 17.473,32.284 19.949,34.611 1.349,1.202 3.866,3.206 6.919,5.426 3.133,2.181 6.435,4.655 9.461,7.536 6.074,5.517 10.949,11.079 10.935,11.079 0.012,0 -4.141,-6.116 -9.656,-12.355 -2.642,-3.15 -5.994,-6.258 -8.846,-8.643 -2.823,-2.472 -5.122,-4.588 -6.416,-5.743 -1.264,-1.176 -5.338,-4.717 -9.235,-10.434 -1.967,-2.905 -3.76,-6.166 -5.493,-10.141 -1.684,-3.434 -2.509,-7.461 -2.548,-11.521 -0.062,-7.086 1.858,-14.012 3.846,-19.377 2.668,-1.382 6.865,-1.834 13.43,0.615 5.236,2.902 9.737,6.218 13.616,9.831 l -6.202,8.169 11.594,-2.494 c 3.872,4.61 6.918,9.569 9.3,14.689 l -11.267,3.398 14.096,3.661 c 2.466,7.16 3.802,14.474 4.41,21.474 l -11.195,-1.946 -0.114,-0.047 0.067,0.04 -1.22,-0.213 12.821,8.513 c 0.57,19.967 -4.189,35.955 -4.189,35.955" />
    </clipPath>
    <linearGradient
       y2="539.74548"
       x2="463.8797"
       y1="575.79578"
       x1="500.87375"
       gradientUnits="userSpaceOnUse"
       id="linearGradient5495-4"
       xlink:href="#linearGradient566-0"
       inkscape:collect="always" />
    <linearGradient
       id="linearGradient3927"
       spreadMethod="pad"
       gradientTransform="matrix(-60.2848,-9.4312,-48.4567,309.738,509.042,413.0601)"
       gradientUnits="userSpaceOnUse"
       y2="0"
       x2="1"
       y1="0"
       x1="0">
      <stop
         id="stop3929"
         offset="0"
         style="stop-opacity:1;stop-color:#9ed747" />
      <stop
         id="stop3931"
         offset="1"
         style="stop-opacity:1;stop-color:#7fcc2b" />
    </linearGradient>
    <linearGradient
       y2="539.74548"
       x2="463.8797"
       y1="575.79578"
       x1="500.87375"
       gradientUnits="userSpaceOnUse"
       id="linearGradient5493-5"
       xlink:href="#linearGradient566-0"
       inkscape:collect="always" />
    <linearGradient
       id="linearGradient3934"
       spreadMethod="pad"
       gradientTransform="matrix(-60.2848,-9.4312,-48.4567,309.738,509.042,413.0601)"
       gradientUnits="userSpaceOnUse"
       y2="0"
       x2="1"
       y1="0"
       x1="0">
      <stop
         id="stop3936"
         offset="0"
         style="stop-opacity:1;stop-color:#9ed747" />
      <stop
         id="stop3938"
         offset="1"
         style="stop-opacity:1;stop-color:#7fcc2b" />
    </linearGradient>
    <linearGradient
       y2="539.74548"
       x2="463.8797"
       y1="575.79578"
       x1="500.87375"
       gradientUnits="userSpaceOnUse"
       id="linearGradient5491-5"
       xlink:href="#linearGradient566-0"
       inkscape:collect="always" />
    <linearGradient
       id="linearGradient3941"
       spreadMethod="pad"
       gradientTransform="matrix(-60.2848,-9.4312,-48.4567,309.738,509.042,413.0601)"
       gradientUnits="userSpaceOnUse"
       y2="0"
       x2="1"
       y1="0"
       x1="0">
      <stop
         id="stop3943"
         offset="0"
         style="stop-opacity:1;stop-color:#9ed747" />
      <stop
         id="stop3945"
         offset="1"
         style="stop-opacity:1;stop-color:#7fcc2b" />
    </linearGradient>
    <clipPath
       id="clipPath554-1"
       clipPathUnits="userSpaceOnUse">
      <path
         id="path556-7"
         d="m 435.851,570.76 c 13.509,16.729 33.148,24.578 43.571,31.466 -8.989,-8.201 -29.577,-17.459 -42.001,-36.625 -11.215,-17.302 -5.693,-33.296 -1.208,-40.414 -1.528,0.569 -3.041,1.559 -4.23,3.239 -3.852,5.459 -11.15,23.733 3.868,42.334" />
    </clipPath>
    <linearGradient
       inkscape:collect="always"
       xlink:href="#linearGradient4555"
       id="linearGradient4561"
       x1="30.984133"
       y1="44.008162"
       x2="33.041171"
       y2="44.008162"
       gradientUnits="userSpaceOnUse" />
    <inkscape:perspective
       id="perspective2983"
       inkscape:persp3d-origin="0.5 : 0.33333333 : 1"
       inkscape:vp_z="1 : 0.5 : 1"
       inkscape:vp_y="0 : 1000 : 0"
       inkscape:vp_x="0 : 0.5 : 1"
       sodipodi:type="inkscape:persp3d" />
    <inkscape:perspective
       id="perspective2983-1"
       inkscape:persp3d-origin="0.5 : 0.33333333 : 1"
       inkscape:vp_z="1 : 0.5 : 1"
       inkscape:vp_y="0 : 1000 : 0"
       inkscape:vp_x="0 : 0.5 : 1"
       sodipodi:type="inkscape:persp3d" />
    <inkscape:perspective
       id="perspective2983-7"
       inkscape:persp3d-origin="0.5 : 0.33333333 : 1"
       inkscape:vp_z="1 : 0.5 : 1"
       inkscape:vp_y="0 : 1000 : 0"
       inkscape:vp_x="0 : 0.5 : 1"
       sodipodi:type="inkscape:persp3d" />
    <inkscape:perspective
       id="perspective2983-4"
       inkscape:persp3d-origin="0.5 : 0.33333333 : 1"
       inkscape:vp_z="1 : 0.5 : 1"
       inkscape:vp_y="0 : 1000 : 0"
       inkscape:vp_x="0 : 0.5 : 1"
       sodipodi:type="inkscape:persp3d" />
    <inkscape:perspective
       id="perspective3052"
       inkscape:persp3d-origin="0.5 : 0.33333333 : 1"
       inkscape:vp_z="1 : 0.5 : 1"
       inkscape:vp_y="0 : 1000 : 0"
       inkscape:vp_x="0 : 0.5 : 1"
       sodipodi:type="inkscape:persp3d" />
    <inkscape:perspective
       id="perspective3075"
       inkscape:persp3d-origin="0.5 : 0.33333333 : 1"
       inkscape:vp_z="1 : 0.5 : 1"
       inkscape:vp_y="0 : 1000 : 0"
       inkscape:vp_x="0 : 0.5 : 1"
       sodipodi:type="inkscape:persp3d" />
    <inkscape:perspective
       id="perspective3075-0"
       inkscape:persp3d-origin="0.5 : 0.33333333 : 1"
       inkscape:vp_z="1 : 0.5 : 1"
       inkscape:vp_y="0 : 1000 : 0"
       inkscape:vp_x="0 : 0.5 : 1"
       sodipodi:type="inkscape:persp3d" />
    <inkscape:perspective
       id="perspective3116"
       inkscape:persp3d-origin="0.5 : 0.33333333 : 1"
       inkscape:vp_z="1 : 0.5 : 1"
       inkscape:vp_y="0 : 1000 : 0"
       inkscape:vp_x="0 : 0.5 : 1"
       sodipodi:type="inkscape:persp3d" />
    <inkscape:perspective
       id="perspective3116-8"
       inkscape:persp3d-origin="0.5 : 0.33333333 : 1"
       inkscape:vp_z="1 : 0.5 : 1"
       inkscape:vp_y="0 : 1000 : 0"
       inkscape:vp_x="0 : 0.5 : 1"
       sodipodi:type="inkscape:persp3d" />
    <inkscape:perspective
       id="perspective3116-82"
       inkscape:persp3d-origin="0.5 : 0.33333333 : 1"
       inkscape:vp_z="1 : 0.5 : 1"
       inkscape:vp_y="0 : 1000 : 0"
       inkscape:vp_x="0 : 0.5 : 1"
       sodipodi:type="inkscape:persp3d" />
    <linearGradient
       inkscape:collect="always"
       xlink:href="#linearGradient566-0"
       id="linearGradient3172"
       gradientUnits="userSpaceOnUse"
       x1="500.87375"
       y1="575.79578"
       x2="463.8797"
       y2="539.74548" />
    <linearGradient
       inkscape:collect="always"
       xlink:href="#linearGradient566-0"
       id="linearGradient3174"
       gradientUnits="userSpaceOnUse"
       x1="500.87375"
       y1="575.79578"
       x2="463.8797"
       y2="539.74548" />
    <linearGradient
       inkscape:collect="always"
       xlink:href="#linearGradient566-0"
       id="linearGradient3176"
       gradientUnits="userSpaceOnUse"
       x1="500.87375"
       y1="575.79578"
       x2="463.8797"
       y2="539.74548" />
    <linearGradient
       inkscape:collect="always"
       xlink:href="#linearGradient566-0"
       id="linearGradient3178"
       gradientUnits="userSpaceOnUse"
       x1="500.87375"
       y1="575.79578"
       x2="463.8797"
       y2="539.74548" />
    <linearGradient
       inkscape:collect="always"
       xlink:href="#linearGradient566-0"
       id="linearGradient3180"
       gradientUnits="userSpaceOnUse"
       x1="500.87375"
       y1="575.79578"
       x2="463.8797"
       y2="539.74548" />
  </defs>
  <sodipodi:namedview
     id="base"
     pagecolor="#ffffff"
     bordercolor="#666666"
     borderopacity="1.0"
     inkscape:pageopacity="0.0"
     inkscape:pageshadow="2"
     inkscape:zoom="11"
     inkscape:cx="16.909091"
     inkscape:cy="32"
     inkscape:current-layer="g2930"
     showgrid="false"
     inkscape:document-units="px"
     inkscape:grid-bbox="true"
     inkscape:window-width="1920"
     inkscape:window-height="1138"
     inkscape:window-x="-8"
     inkscape:window-y="-8"
     inkscape:window-maximized="1"
     inkscape:snap-global="false">
    <inkscape:grid
       type="xygrid"
       id="grid2998" />
  </sodipodi:namedview>
  <metadata
     id="metadata3646">
    <rdf:RDF>
      <cc:Work
         rdf:about="">
        <dc:format>image/svg+xml</dc:format>
        <dc:type
           rdf:resource="http://purl.org/dc/dcmitype/StillImage" />
        <dc:title />
      </cc:Work>
    </rdf:RDF>
  </metadata>
  <g
     id="layer1"
     inkscape:label="Layer 1"
     inkscape:groupmode="layer">
    <path
       style="fill:#000000;stroke:none"
       d="M 32.09375 32.1875 L 32.09375 63.90625 L 16.0625 63.90625 L 16 64 L 48 64 L 32.09375 32.1875 z "
       id="path4037" />
    <g
       id="g2952">
      <path
         style="fill:#000000;stroke:none"
         d="M 32 0 L 32 6 C 46.359403 6 58 17.640597 58 32 L 64 32 C 64 14.326888 49.673112 -7.1678774e-15 32 0 z "
         id="path3651" />
      <path
         style="fill:#000000;stroke:none"
         d="M 32 12 L 32 18 C 39.731986 18 46 24.268014 46 32 L 52 32 C 52 20.954305 43.045695 12 32 12 z "
         id="path3655" />
    </g>
    <path
       style="fill:#000000;stroke:none"
       d="M 32 24 L 32 40 C 36.418278 40 40 36.418278 40 32 C 40 27.581722 36.418278 24 32 24 z "
       id="path3659" />
    <g
       id="g2930">
      <path
         sodipodi:nodetypes="csszcc"
         id="path4549"
         d="m 32,24.5 c 0,0 -8,0 -8,2 0,5 0.5,29 -3,32 -1.5,1.5 -10,5 -6,5 4,0 17,0 17,0 l 0,-39 z"
         style="fill:#ac6d1f;fill-opacity:1;stroke:#000000;stroke-width:0.988;stroke-opacity:1;stroke-miterlimit:4;stroke-dasharray:none" />
      <g
         id="g5479"
         transform="matrix(-0.0687518,0.01748287,0.01748287,0.0687518,34.583541,-24.755002)">
        <g
           style="fill:url(#linearGradient3180);fill-opacity:1"
           transform="matrix(5.2686835,0,0,-5.2686835,-2040.8688,3490.9839)"
           id="g526">
          <g
             style="fill:url(#linearGradient3178);fill-opacity:1"
             clip-path="url(#clipPath530-8)"
             id="g528">
            <g
               style="fill:url(#linearGradient3176);fill-opacity:1"
               id="g534">
              <g
                 style="fill:url(#linearGradient3174);fill-opacity:1"
                 id="g540">
                <path
                   id="path548"
                   style="fill:url(#linearGradient3172);fill-opacity:1;stroke:none"
                   d="M 0,0 810,0 810,751 0,751 0,0 z" />
              </g>
            </g>
          </g>
        </g>
        <g
           style="fill:#7fb820;fill-opacity:1;stroke:none"
           transform="matrix(5.2686835,0,0,-5.2686835,-2040.8688,3490.9839)"
           id="g550">
          <g
             style="fill:#7fb820;fill-opacity:1;stroke:none"
             clip-path="url(#clipPath554-1)"
             id="g552">
            <g
               style="fill:#7fb820;fill-opacity:1;stroke:none"
               id="g558">
              <g
                 style="fill:#7fb820;fill-opacity:1;stroke:none"
                 id="g564">
                <path
                   id="path572"
                   style="fill:#7fb820;fill-opacity:1;stroke:none"
                   d="m -22.753963,-25.616452 810.000003,0 0,750.999992 -810.000003,0 0,-750.999992 z" />
              </g>
            </g>
          </g>
        </g>
      </g>
      <rect
         y="25.044844"
         x="30.984133"
         height="37.926636"
         width="2.0570378"
         id="rect4553"
         style="fill:url(#linearGradient4561);fill-opacity:1;stroke:none" />
    </g>
  </g>
</svg>
